<?xml version="1.0" encoding="UTF-8"?>
<!DOCTYPE svg PUBLIC "-//W3C//DTD SVG 1.1//EN" "http://www.w3.org/Graphics/SVG/1.1/DTD/svg11.dtd">
<svg xmlns="http://www.w3.org/2000/svg" xmlns:xlink="http://www.w3.org/1999/xlink" version="1.1" width="71" height="71" viewBox="-0.5 -0.5 71 71"><defs><filter id="dropShadow"><feGaussianBlur in="SourceAlpha" stdDeviation="1.7" result="blur"/><feOffset in="blur" dx="3" dy="3" result="offsetBlur"/><feFlood flood-color="#3D4574" flood-opacity="0.4" result="offsetColor"/><feComposite in="offsetColor" in2="offsetBlur" operator="in" result="offsetBlur"/><feBlend in="SourceGraphic" in2="offsetBlur"/></filter></defs><g filter="url(#dropShadow)"><path d="M 2 2 L 62 32 L 2 62 Z" fill="none" stroke="none" transform="rotate(-90,32,32)" pointer-events="all"/><path d="M 2 2 M 2 2 C 19.45 12.7 34.75 21.91 62 32 M 2 2 C 20.8 12.2 37 21.87 62 32 M 62 32 C 42.19 41.54 29.54 48.42 2 62 M 62 32 C 39.15 44.33 18.64 54 2 62 M 2 62 C -0.08 47.14 0.21 25.83 2 2 M 2 62 C 0.79 38.68 -0.07 17.86 2 2" fill="none" stroke="#ffffff" stroke-width="4" stroke-linejoin="round" stroke-linecap="round" stroke-miterlimit="10" transform="rotate(-90,32,32)" pointer-events="all"/><path d="M 17 32 L 22 47 L 32 27 L 42 42 L 47 32" fill="none" stroke="none" pointer-events="stroke"/><path d="M 17 32 M 17 32 C 18.39 35.78 18.08 41.21 22 47 M 17 32 C 17.9 38.73 20.3 43.49 22 47 M 22 47 C 23.06 36.36 29.63 32.76 32 27 M 22 47 C 26.63 41.15 28.75 32.98 32 27 M 32 27 C 37.88 28.34 37.05 31.56 42 42 M 32 27 C 32.33 28.79 35.42 34.22 42 42 M 42 42 C 45.25 40.76 43.37 33.25 47 32 M 42 42 C 43.86 38.99 45.54 37.71 47 32" fill="none" stroke="#ffffff" stroke-width="4" stroke-linejoin="round" stroke-linecap="round" stroke-miterlimit="10" pointer-events="stroke"/></g></svg>